<svg xmlns="http://www.w3.org/2000/svg" id="Capa_2" data-name="Capa 2" viewBox="0 0 236.93 48.21"><defs><style>      .cls-1 {        fill: #21768a;      }      .cls-1, .cls-2, .cls-3 {        stroke-width: 0px;      }      .cls-2 {        fill: #113f56;      }      .cls-3 {        fill: #01aae8;        fill-rule: evenodd;      }    </style></defs><g id="Capa_1-2" data-name="Capa 1"><g><rect class="cls-1" x="17.49" y="17.49" width="13.23" height="13.23" transform="translate(-8.82 15.28) rotate(-30)"></rect><path class="cls-3" d="m19.85,34.2c-4.17,2.41-8.34,4.82-12.51,7.22C-2.04,32.58-2.12,17.86,5.31,9.01l14.54,25.19ZM39.2,5.31C30.35-2.12,15.63-2.04,6.79,7.34c2.41,4.17,4.82,8.34,7.22,12.51l25.19-14.54ZM9.01,42.9c8.84,7.43,23.57,7.35,32.41-2.03-2.41-4.17-4.82-8.34-7.22-12.51l-25.19,14.54ZM40.87,6.79c-4.17,2.41-8.34,4.82-12.51,7.22l14.54,25.19c7.43-8.84,7.35-23.57-2.03-32.41Z"></path><path class="cls-2" d="m229.78,36.13c2.9,0,5.1-.4,7.15-1.1v-5.21c-2.13.88-4.37,1.28-6.68,1.28-4.73,0-7.15-2.16-7.15-6.97s2.16-7.3,7.08-7.3c2.42,0,4.59.44,6.71,1.32v-5.17c-2.09-.73-4.26-1.21-7.15-1.21-8.44,0-12.65,4.48-12.65,12.36s4.44,11.99,12.69,11.99m-30.19-.37h17.42v-4.55h-11.52v-4.95h10.16v-4.62h-10.16v-4.95h11.52v-4.55h-17.42v23.62Zm-15.11,0h5.91v-19.07h6.93v-4.55h-19.77v4.55h6.93v19.07Zm-21.24-12.03v-7.04h4.62c2.27,0,3.41,1.21,3.41,3.56s-1.36,3.48-3.67,3.48h-4.37Zm-5.91,12.03h5.91v-7.48h2.71c1.28,0,1.87.44,2.31,1.47l2.64,6.02h6.16l-2.79-6.38c-.51-1.17-.84-1.72-1.5-2.27,2.79-1.17,4.51-3.67,4.51-6.86,0-4.92-2.57-8.11-8.14-8.11h-11.81v23.62Zm-9.65,0h5.91V12.14h-5.91v23.62Zm-18.41-4.55v-14.53h3.52c4.11,0,5.87,1.58,5.87,7.41s-2.05,7.12-5.87,7.12h-3.52Zm-5.91,4.55h10.23c7.26,0,11.08-3.56,11.08-11.66,0-8.62-3.92-11.96-11.08-11.96h-10.23v23.62Zm-14.78-4.66c-4,0-5.76-2.2-5.76-7.04,0-5.28,1.76-7.23,5.76-7.23s5.72,1.94,5.72,7.23c0,4.84-1.76,7.04-5.72,7.04Zm0,5.03c7.67,0,11.77-3.78,11.77-12.07,0-8.73-4.11-12.29-11.77-12.29s-11.77,3.56-11.77,12.29,4.07,12.07,11.77,12.07Zm-27.55-12.4v-7.04h4.62c2.27,0,3.41,1.21,3.41,3.56s-1.36,3.48-3.67,3.48h-4.37Zm-5.91,12.03h5.91v-7.48h2.71c1.28,0,1.87.44,2.31,1.47l2.64,6.02h6.16l-2.79-6.38c-.51-1.17-.84-1.72-1.5-2.27,2.79-1.17,4.51-3.67,4.51-6.86,0-4.92-2.57-8.11-8.14-8.11h-11.81v23.62Zm-16.32-11.48v-7.59h4.44c2.42,0,3.56,1.43,3.56,3.85,0,2.24-1.25,3.74-3.74,3.74h-4.25Zm-5.91,11.48h5.91v-6.93h5.58c5.17,0,8.44-3.37,8.44-8.25s-2.64-8.44-8.29-8.44h-11.63v23.62Z"></path></g></g></svg>